<?xml version="1.0" standalone="no"?>
<!DOCTYPE svg PUBLIC "-//W3C//DTD SVG 20010904//EN"
 "http://www.w3.org/TR/2001/REC-SVG-20010904/DTD/svg10.dtd">
<svg version="1.0" xmlns="http://www.w3.org/2000/svg"
 width="175.000000pt" height="175.000000pt" viewBox="0 0 175.000000 175.000000"
 preserveAspectRatio="xMidYMid meet">
<metadata>
Created by potrace 1.11, written by Peter Selinger 2001-2013
</metadata>
<g transform="translate(0.000000,175.000000) scale(0.100000,-0.100000)"
fill="#000000" stroke="none">
<path d="M0 965 l0 -785 875 0 875 0 0 785 0 785 -567 0 -568 0 3 -420 c1
-231 6 -420 10 -420 4 0 100 90 214 200 l207 200 151 0 150 0 -142 -137 c-79
-76 -191 -185 -250 -242 l-107 -104 36 -41 c20 -23 131 -144 247 -270 116
-126 213 -233 214 -237 2 -5 -63 -9 -145 -9 l-148 0 -137 152 c-75 84 -173
191 -217 238 l-80 85 -1 -237 0 -238 -110 0 -110 0 0 740 0 740 -200 0 -200 0
0 -785z"/>
</g>
</svg>
